<?xml version="1.0" standalone="no"?>
<!DOCTYPE svg PUBLIC "-//W3C//DTD SVG 20010904//EN"
 "http://www.w3.org/TR/2001/REC-SVG-20010904/DTD/svg10.dtd">
<svg version="1.0" xmlns="http://www.w3.org/2000/svg"
 width="310.000000pt" height="332.000000pt" viewBox="0 0 310.000000 332.000000"
 preserveAspectRatio="xMidYMid meet">
<g transform="translate(0.000000,332.000000) scale(0.100000,-0.100000)"
fill="#000000" stroke="none">
<path d="M1385 2998 c-2 -7 -6 -211 -8 -453 -5 -470 -8 -505 -63 -700 -31
-111 -136 -327 -206 -420 -75 -101 -248 -270 -358 -348 -89 -63 -416 -237
-446 -237 -31 0 -21 -30 67 -193 50 -95 94 -174 96 -176 13 -16 287 117 413
199 301 199 519 459 631 756 17 46 33 83 34 82 2 -2 23 -52 49 -112 152 -362
435 -653 816 -838 119 -58 216 -96 223 -88 9 9 187 353 185 356 -2 1 -69 34
-151 72 -534 255 -826 614 -918 1128 -19 106 -22 167 -26 552 l-5 432 -164 0
c-123 0 -166 -3 -169 -12z"/>
<path d="M567 2348 l-137 -91 51 -95 c98 -185 212 -337 370 -494 65 -65 121
-118 126 -118 17 0 193 291 193 320 0 5 -39 47 -86 92 -102 98 -220 252 -295
384 -32 56 -60 94 -69 94 -8 0 -77 -42 -153 -92z"/>
<path d="M2311 2346 c-76 -134 -195 -288 -295 -383 -47 -45 -86 -87 -86 -94 0
-32 174 -319 193 -319 18 0 235 225 311 323 97 126 247 370 234 382 -23 20
-283 185 -292 185 -6 0 -36 -42 -65 -94z"/>
</g>
</svg>
