<?xml version="1.0" standalone="no"?>
<!DOCTYPE svg PUBLIC "-//W3C//DTD SVG 20010904//EN"
 "http://www.w3.org/TR/2001/REC-SVG-20010904/DTD/svg10.dtd">
<svg version="1.0" xmlns="http://www.w3.org/2000/svg"
 width="600.000000pt" height="204.000000pt" viewBox="0 0 600.000000 204.000000"
 preserveAspectRatio="xMidYMid meet">
<g transform="translate(0.000000,204.000000) scale(0.100000,-0.100000)"
fill="#000000" stroke="none">
<path d="M687 1693 c-4 -3 -7 -92 -7 -197 0 -289 -17 -411 -75 -540 -71 -158
-259 -330 -448 -408 -39 -17 -73 -32 -75 -33 -7 -6 114 -225 124 -225 3 0 37
16 77 36 214 107 367 258 462 456 19 40 35 65 35 56 0 -29 76 -165 130 -233
87 -110 203 -201 345 -272 104 -53 94 -57 158 60 31 57 57 108 57 114 0 5 -38
27 -85 48 -124 55 -222 124 -311 218 -134 141 -179 256 -194 500 -5 78 -10
206 -10 285 l0 142 -88 0 c-49 0 -92 -3 -95 -7z m173 -206 c1 -346 35 -509
138 -647 91 -122 230 -230 382 -297 44 -19 74 -38 72 -46 -2 -6 -26 -53 -55
-104 l-51 -91 -81 40 c-218 110 -363 253 -453 448 l-38 83 -23 -54 c-38 -87
-129 -219 -201 -290 -75 -74 -148 -126 -262 -188 l-77 -41 -39 68 c-57 97 -74
133 -68 140 3 3 34 17 69 32 133 56 274 165 361 280 124 163 155 287 156 634
1 123 4 227 7 230 3 3 41 5 85 5 l78 -1 0 -201z"/>
<path d="M251 1335 c-41 -25 -79 -49 -84 -54 -21 -21 103 -202 215 -313 43
-43 84 -78 91 -78 12 0 56 73 88 147 l18 41 -65 67 c-36 37 -90 105 -120 151
-30 46 -58 84 -62 84 -4 0 -40 -20 -81 -45z m173 -105 c22 -30 62 -76 89 -102
56 -53 56 -52 0 -160 -30 -58 -37 -66 -53 -58 -57 30 -280 314 -280 356 0 7
35 34 77 59 l77 44 25 -42 c13 -23 43 -67 65 -97z"/>
<path d="M1175 1333 c-36 -62 -85 -124 -153 -195 -55 -56 -55 -57 -42 -90 25
-63 82 -158 95 -158 16 0 106 87 171 166 64 77 147 210 140 223 -8 12 -160
101 -173 101 -6 0 -23 -21 -38 -47z m158 -33 c20 -12 37 -27 37 -32 0 -36
-127 -208 -228 -307 -75 -74 -69 -77 -128 46 l-35 72 64 64 c35 35 88 100 117
145 l53 81 41 -23 c22 -13 58 -33 79 -46z"/>
<path d="M4568 1345 c-15 -8 -31 -30 -38 -49 -30 -92 98 -154 154 -74 51 72
-37 167 -116 123z m96 -21 c25 -25 30 -61 12 -90 -22 -32 -54 -44 -88 -32 -51
18 -66 59 -38 106 17 27 25 32 59 32 23 0 46 -7 55 -16z"/>
<path d="M2104 1283 c-9 -21 -38 -91 -65 -155 -27 -65 -49 -121 -49 -125 -1
-5 -9 -26 -20 -48 -11 -22 -19 -43 -20 -48 0 -4 -22 -61 -50 -126 -27 -65 -50
-124 -50 -130 0 -8 24 -11 76 -9 l76 3 27 70 27 70 133 0 134 0 26 -70 27 -70
72 -3 c64 -3 72 -1 72 15 0 10 -58 162 -128 338 l-128 320 -72 3 -73 3 -15
-38z m242 -208 c51 -126 97 -241 102 -255 6 -14 22 -53 36 -87 14 -34 26 -67
26 -73 0 -6 -26 -10 -63 -10 l-62 0 -26 73 -26 72 -144 0 -143 0 -25 -65 c-13
-36 -28 -68 -33 -71 -5 -3 -36 -7 -68 -8 l-59 -2 14 38 c7 21 57 144 110 273
53 129 103 252 110 272 29 78 30 79 98 76 l62 -3 91 -230z"/>
<path d="M2180 1152 c0 -4 4 -12 8 -17 5 -6 21 -46 37 -90 15 -44 34 -92 42
-107 l14 -28 -90 0 c-90 0 -90 0 -82 23 5 12 23 59 41 105 18 46 30 85 28 88
-5 4 -88 -204 -88 -218 0 -5 45 -8 101 -8 92 0 101 2 95 18 -41 114 -93 242
-98 242 -5 0 -8 -4 -8 -8z"/>
<path d="M4230 1196 l0 -65 -47 -3 -48 -3 0 -55 0 -55 48 -3 47 -3 0 -145 c0
-161 9 -192 60 -219 29 -15 134 -20 178 -9 19 6 22 13 22 60 l0 54 -39 -6
c-22 -4 -47 -1 -60 5 -20 11 -21 19 -21 136 l0 124 53 3 52 3 3 58 3 57 -55 0
-55 0 -3 63 -3 62 -67 3 -68 3 0 -65z m120 -13 l0 -63 55 0 55 0 0 -44 0 -45
-52 -3 -53 -3 0 -133 c0 -155 6 -166 83 -160 l42 3 0 -41 c0 -38 -2 -42 -31
-48 -54 -10 -119 -7 -149 9 -52 27 -60 57 -60 225 l0 150 -45 0 -45 0 0 45 0
45 45 0 45 0 0 63 0 62 55 0 55 0 0 -62z"/>
<path d="M2662 1125 c-98 -43 -152 -126 -152 -236 0 -75 19 -130 58 -173 84
-90 207 -111 296 -51 34 23 36 23 36 5 0 -38 -33 -89 -68 -106 -54 -25 -110
-14 -148 30 -29 34 -35 36 -92 36 -33 0 -63 -4 -66 -9 -10 -15 13 -64 47 -99
63 -67 148 -92 261 -78 77 10 143 55 176 121 25 49 25 54 26 308 l2 257 -69 0
c-61 0 -69 -2 -69 -19 0 -17 -3 -17 -47 5 -54 28 -139 32 -191 9z m152 -6 c24
-6 55 -22 69 -35 l27 -25 0 31 c0 30 0 30 55 30 l55 0 0 -252 c0 -227 -2 -257
-19 -295 -51 -110 -222 -155 -355 -92 -50 23 -106 87 -106 120 0 17 7 18 55
15 45 -2 59 -8 83 -34 34 -37 67 -47 126 -38 61 10 97 50 104 116 l5 51 -38
-25 c-82 -56 -173 -56 -258 2 -52 35 -86 96 -93 168 -19 179 121 306 290 263z"/>
<path d="M2695 1008 c-69 -54 -73 -183 -6 -242 33 -29 117 -33 159 -6 82 51
82 200 0 250 -45 28 -117 27 -153 -2z m151 -13 c52 -34 69 -125 34 -182 -57
-94 -190 -77 -221 28 -20 66 11 147 65 170 29 12 92 4 122 -16z"/>
<path d="M3234 1124 c-98 -35 -165 -144 -157 -258 9 -144 108 -236 253 -236
111 0 176 30 224 104 39 61 36 66 -42 66 -60 0 -71 -3 -91 -24 -49 -52 -154
-39 -185 23 -9 16 -16 34 -16 38 0 4 82 8 183 8 l182 0 -2 61 c-2 100 -51 171
-143 213 -54 24 -145 27 -206 5z m165 -5 c34 -7 64 -23 94 -49 52 -46 72 -85
82 -157 l7 -53 -190 0 -191 0 10 -32 c5 -18 22 -46 39 -63 27 -27 36 -30 90
-29 51 1 65 5 88 27 24 23 37 27 85 27 31 0 57 -2 57 -4 0 -16 -45 -76 -70
-95 -134 -99 -334 -50 -395 96 -38 91 -4 232 69 288 64 49 136 63 225 44z"/>
<path d="M3244 996 c-34 -34 -45 -66 -22 -66 6 0 8 3 5 6 -11 11 24 61 50 73
58 27 135 1 158 -52 10 -23 14 -26 14 -12 1 47 -54 85 -124 85 -40 0 -52 -5
-81 -34z"/>
<path d="M3298 933 c23 -2 59 -2 80 0 20 2 1 4 -43 4 -44 0 -61 -2 -37 -4z"/>
<path d="M3823 1119 c-24 -12 -43 -25 -43 -30 0 -4 17 1 37 13 28 17 53 22
102 22 77 0 119 -19 153 -66 22 -31 23 -43 26 -220 l3 -188 -55 0 -56 0 0 144
c0 192 -13 224 -94 233 -55 7 -98 -15 -120 -61 -12 -26 -16 -65 -16 -175 l0
-141 -55 0 -55 0 0 235 0 235 55 0 c54 0 55 0 55 -30 0 -16 5 -30 11 -30 6 0
8 7 5 16 -3 9 -6 24 -6 35 0 17 -8 19 -65 19 l-65 0 0 -245 0 -246 68 3 67 3
5 161 c4 113 9 166 18 177 24 28 77 40 118 27 55 -18 64 -52 64 -225 l0 -146
68 3 67 3 3 150 c4 164 -7 239 -40 281 -50 62 -174 83 -255 43z"/>
<path d="M4896 1124 c-57 -21 -102 -58 -133 -112 -24 -41 -28 -57 -28 -127 1
-112 40 -181 130 -228 50 -25 176 -35 230 -17 67 22 155 119 141 156 -8 21
-134 20 -143 -1 -9 -24 -58 -45 -104 -45 -33 0 -47 6 -75 34 -19 19 -34 42
-35 52 0 11 -2 31 -4 46 -2 15 6 46 18 70 39 76 130 89 188 27 25 -26 33 -29
93 -29 75 0 79 6 46 70 -22 43 -67 81 -123 105 -45 19 -149 18 -201 -1z m172
-4 c58 -13 115 -57 142 -111 11 -21 20 -41 20 -44 0 -3 -27 -5 -60 -5 -49 0
-61 3 -70 20 -15 29 -63 50 -111 50 -35 0 -48 -6 -79 -38 -64 -64 -66 -158 -5
-219 29 -29 39 -33 88 -33 46 0 61 5 87 27 28 23 40 26 89 24 31 -2 57 -4 59
-6 11 -10 -58 -90 -97 -113 -40 -24 -57 -27 -131 -27 -94 0 -142 18 -191 72
-47 50 -63 92 -63 168 0 98 32 156 117 210 52 33 124 42 205 25z"/>
<path d="M5375 1116 c-27 -13 -60 -34 -72 -47 -22 -24 -53 -88 -53 -109 0 -6
26 -10 61 -10 56 0 63 2 93 35 34 36 68 44 124 29 21 -6 52 -49 52 -72 0 -5
-42 -10 -92 -11 -109 -2 -163 -22 -205 -78 -21 -27 -27 -46 -26 -79 2 -54 14
-76 60 -111 30 -23 48 -28 109 -31 65 -4 79 -1 119 22 43 26 45 26 45 6 0 -18
6 -20 64 -20 l64 0 -5 178 c-6 215 -17 250 -98 294 -68 37 -167 39 -240 4z
m190 3 c55 -15 92 -44 114 -87 16 -31 19 -66 23 -209 l3 -173 -51 0 c-51 0
-53 1 -59 32 -6 26 -9 28 -17 15 -29 -53 -157 -74 -233 -37 -77 37 -100 129
-48 190 42 50 100 70 205 70 l91 0 -6 37 c-9 52 -28 66 -94 71 -48 3 -63 0
-85 -18 -16 -12 -28 -28 -28 -36 0 -11 -15 -14 -60 -14 l-60 0 15 38 c21 48
70 99 109 111 69 22 127 25 181 10z"/>
<path d="M5418 835 c-51 -28 -45 -81 12 -105 66 -27 160 26 160 91 l0 29 -72
0 c-44 -1 -84 -7 -100 -15z m162 -16 c0 -11 -13 -34 -29 -50 -25 -24 -38 -29
-78 -29 -54 0 -73 12 -73 47 0 32 48 52 123 53 51 0 57 -2 57 -21z"/>
<path d="M4540 885 l0 -245 70 0 70 0 0 245 0 245 -70 0 -70 0 0 -245z m130 0
l0 -235 -60 0 -60 0 0 235 0 235 60 0 60 0 0 -235z"/>
</g>
</svg>
